<svg id="圖層_1" data-name="圖層 1" xmlns="http://www.w3.org/2000/svg" xmlns:xlink="http://www.w3.org/1999/xlink" viewBox="0 0 143.5 143.5"><defs><style>.cls-1,.cls-3,.cls-5,.cls-7{fill:none;}.cls-2{clip-path:url(#clip-path);}.cls-3,.cls-5,.cls-7{stroke:#000;stroke-miterlimit:10;}.cls-4{clip-path:url(#clip-path-2);}.cls-5{stroke-width:3px;}.cls-6{clip-path:url(#clip-path-3);}.cls-7{stroke-width:5px;}</style><clipPath id="clip-path" transform="translate(-144.38 -392.54)"><path class="cls-1" d="M216.13,495.47s-24.49,16-59.26,9.29a71.77,71.77,0,0,1,48-111.34c-36.29,34.8-19.71,68.68-18.63,70.77l0,.1C190.05,473.09,198.87,483.37,216.13,495.47Z"/></clipPath><clipPath id="clip-path-2" transform="translate(-144.38 -392.54)"><path class="cls-1" d="M287.88,464.29a71.61,71.61,0,0,1-27.07,56.14c8.62-45.39-8.23-70.27-16.52-79.37l0,0a16.67,16.67,0,0,0-4.13-4l-.07-.05a13.86,13.86,0,0,0-6.35-2.35c-1-.1-2-.15-2.89-.15-7.25,0-10.72,3.13-14.7,7.87-4-4.74-7.46-7.87-14.7-7.87-.9,0-1.87.05-2.9.15-6.27.61-13.52,6.35-14.4,17.35v3.67a27.6,27.6,0,0,0,2.14,8.52c-1.08-2.09-17.66-36,18.63-70.77a71.78,71.78,0,0,1,83,70.87Z"/></clipPath><clipPath id="clip-path-3" transform="translate(-144.38 -392.54)"><path class="cls-1" d="M260.81,520.43a71.76,71.76,0,0,1-103.94-15.67c34.77,6.69,59.26-9.29,59.26-9.29,23.23-16.29,31.18-29.28,32-39.8V452a21.14,21.14,0,0,0-3.84-10.94C252.58,450.16,269.43,475,260.81,520.43Z"/></clipPath></defs><title>heart</title><g class="cls-2"><line class="cls-3" x1="143.5" y1="71.75" y2="71.75"/><line class="cls-3" x1="142.41" y1="59.29" x2="1.09" y2="84.21"/><line class="cls-3" x1="139.17" y1="47.21" x2="4.33" y2="96.29"/><line class="cls-3" x1="133.89" y1="35.88" x2="9.61" y2="107.63"/><line class="cls-3" x1="126.71" y1="25.63" x2="16.79" y2="117.87"/><line class="cls-3" x1="117.87" y1="16.79" x2="25.63" y2="126.71"/><line class="cls-3" x1="107.63" y1="9.61" x2="35.88" y2="133.89"/><line class="cls-3" x1="96.29" y1="4.33" x2="47.21" y2="139.17"/><line class="cls-3" x1="84.21" y1="1.09" x2="59.29" y2="142.41"/><line class="cls-3" x1="71.75" x2="71.75" y2="143.5"/><line class="cls-3" x1="59.29" y1="1.09" x2="84.21" y2="142.41"/><line class="cls-3" x1="47.21" y1="4.33" x2="96.29" y2="139.17"/><line class="cls-3" x1="35.88" y1="9.61" x2="107.63" y2="133.89"/><line class="cls-3" x1="25.63" y1="16.79" x2="117.87" y2="126.71"/><line class="cls-3" x1="16.79" y1="25.63" x2="126.71" y2="117.87"/><line class="cls-3" x1="9.61" y1="35.88" x2="133.89" y2="107.63"/><line class="cls-3" x1="4.33" y1="47.21" x2="139.17" y2="96.29"/><line class="cls-3" x1="1.09" y1="59.29" x2="142.41" y2="84.21"/></g><g class="cls-4"><line class="cls-5" x1="143.5" y1="71.75" y2="71.75"/><line class="cls-5" x1="142.41" y1="59.29" x2="1.09" y2="84.21"/><line class="cls-5" x1="139.17" y1="47.21" x2="4.33" y2="96.29"/><line class="cls-5" x1="133.89" y1="35.88" x2="9.61" y2="107.63"/><line class="cls-5" x1="126.71" y1="25.63" x2="16.79" y2="117.87"/><line class="cls-5" x1="117.87" y1="16.79" x2="25.63" y2="126.72"/><line class="cls-5" x1="107.63" y1="9.61" x2="35.88" y2="133.89"/><line class="cls-5" x1="96.29" y1="4.33" x2="47.21" y2="139.18"/><line class="cls-5" x1="84.21" y1="1.09" x2="59.29" y2="142.41"/><line class="cls-5" x1="71.75" x2="71.75" y2="143.5"/><line class="cls-5" x1="59.29" y1="1.09" x2="84.21" y2="142.41"/><line class="cls-5" x1="47.21" y1="4.33" x2="96.29" y2="139.18"/><line class="cls-5" x1="35.88" y1="9.61" x2="107.63" y2="133.89"/><line class="cls-5" x1="25.63" y1="16.79" x2="117.87" y2="126.71"/><line class="cls-5" x1="16.79" y1="25.63" x2="126.71" y2="117.87"/><line class="cls-5" x1="9.61" y1="35.88" x2="133.89" y2="107.63"/><line class="cls-5" x1="4.33" y1="47.21" x2="139.17" y2="96.29"/><line class="cls-5" x1="1.09" y1="59.29" x2="142.41" y2="84.21"/></g><g class="cls-6"><line class="cls-7" x1="143.5" y1="71.75" y2="71.75"/><line class="cls-7" x1="142.41" y1="59.29" x2="1.09" y2="84.21"/><line class="cls-7" x1="139.17" y1="47.21" x2="4.33" y2="96.29"/><line class="cls-7" x1="133.89" y1="35.88" x2="9.61" y2="107.63"/><line class="cls-7" x1="126.71" y1="25.63" x2="16.79" y2="117.87"/><line class="cls-7" x1="117.87" y1="16.79" x2="25.63" y2="126.72"/><line class="cls-7" x1="107.63" y1="9.61" x2="35.88" y2="133.89"/><line class="cls-7" x1="96.29" y1="4.33" x2="47.21" y2="139.17"/><line class="cls-7" x1="84.21" y1="1.09" x2="59.29" y2="142.41"/><line class="cls-7" x1="71.75" x2="71.75" y2="143.5"/><line class="cls-7" x1="59.29" y1="1.09" x2="84.21" y2="142.41"/><line class="cls-7" x1="47.21" y1="4.33" x2="96.29" y2="139.17"/><line class="cls-7" x1="35.88" y1="9.61" x2="107.63" y2="133.89"/><line class="cls-7" x1="25.63" y1="16.79" x2="117.87" y2="126.72"/><line class="cls-7" x1="16.79" y1="25.63" x2="126.71" y2="117.87"/><line class="cls-7" x1="9.61" y1="35.88" x2="133.89" y2="107.63"/><line class="cls-7" x1="4.33" y1="47.21" x2="139.17" y2="96.29"/><line class="cls-7" x1="1.09" y1="59.29" x2="142.41" y2="84.21"/></g></svg>