<svg id="Layer_1" data-name="Layer 1" xmlns="http://www.w3.org/2000/svg" viewBox="0 0 500 500"><defs><style>.cls-1{fill:none;stroke:#000;stroke-miterlimit:10;}</style></defs><title>outer-circle</title><line class="cls-1" x1="250" x2="250" y2="500"/><line class="cls-1" x1="223.87" y1="1.37" x2="276.13" y2="498.63"/><line class="cls-1" x1="198.02" y1="5.46" x2="301.98" y2="494.54"/><line class="cls-1" x1="172.75" y1="12.24" x2="327.25" y2="487.76"/><line class="cls-1" x1="148.32" y1="21.61" x2="351.68" y2="478.39"/><line class="cls-1" x1="125" y1="33.49" x2="375" y2="466.51"/><line class="cls-1" x1="103.05" y1="47.75" x2="396.95" y2="452.25"/><line class="cls-1" x1="82.72" y1="64.21" x2="417.28" y2="435.79"/><line class="cls-1" x1="64.21" y1="82.72" x2="435.79" y2="417.28"/><line class="cls-1" x1="47.75" y1="103.05" x2="452.25" y2="396.95"/><line class="cls-1" x1="33.49" y1="125" x2="466.51" y2="375"/><line class="cls-1" x1="21.61" y1="148.32" x2="478.39" y2="351.68"/><line class="cls-1" x1="12.24" y1="172.75" x2="487.76" y2="327.25"/><line class="cls-1" x1="5.46" y1="198.02" x2="494.54" y2="301.98"/><line class="cls-1" x1="1.37" y1="223.87" x2="498.63" y2="276.13"/><line class="cls-1" y1="250" x2="500" y2="250"/><line class="cls-1" x1="1.37" y1="276.13" x2="498.63" y2="223.87"/><line class="cls-1" x1="5.46" y1="301.98" x2="494.54" y2="198.02"/><line class="cls-1" x1="12.24" y1="327.25" x2="487.76" y2="172.75"/><line class="cls-1" x1="21.61" y1="351.68" x2="478.39" y2="148.32"/><line class="cls-1" x1="33.49" y1="375" x2="466.51" y2="125"/><line class="cls-1" x1="47.75" y1="396.95" x2="452.25" y2="103.05"/><line class="cls-1" x1="64.21" y1="417.28" x2="435.79" y2="82.72"/><line class="cls-1" x1="82.72" y1="435.79" x2="417.28" y2="64.21"/><line class="cls-1" x1="103.05" y1="452.25" x2="396.95" y2="47.75"/><line class="cls-1" x1="125" y1="466.51" x2="375" y2="33.49"/><line class="cls-1" x1="148.32" y1="478.39" x2="351.68" y2="21.61"/><line class="cls-1" x1="172.75" y1="487.76" x2="327.25" y2="12.24"/><line class="cls-1" x1="198.02" y1="494.54" x2="301.98" y2="5.46"/><line class="cls-1" x1="223.87" y1="498.63" x2="276.13" y2="1.37"/></svg>